<?xml version="1.0" encoding="utf-8"?>
<!-- Generator: Adobe Illustrator 22.1.0, SVG Export Plug-In . SVG Version: 6.00 Build 0)  -->
<svg version="1.0" id="Ebene_1" xmlns="http://www.w3.org/2000/svg" xmlns:xlink="http://www.w3.org/1999/xlink" x="0px" y="0px"
	 viewBox="0 0 595 842" style="enable-background:new 0 0 595 842;" xml:space="preserve">
<style type="text/css">
	.st0{fill:#F2EBE4;}
	.st1{font-family:'NexusSans';}
	.st2{font-size:20px;}
	.st3{fill:#E6E7E8;}
	.st4{fill:none;stroke:#808284;stroke-width:0.4;}
	.st5{font-family:'Sonderzeichen';}
	.st6{font-size:10px;}
	.st7{font-size:8px;}
	.st8{font-family:'NexusSans-Bold';}
	.st9{font-size:4.664px;}
	.st10{font-family:'NexusTypewriter';}
	.st11{font-family:'Wingdings3';}
	.st12{font-size:9px;}
	.st13{font-size:7px;}
	.st14{fill:none;stroke:#58595B;stroke-width:0.6;stroke-miterlimit:10;}
	.st15{fill:none;stroke:#60489D;stroke-width:0.6;stroke-miterlimit:10;}
	.st16{fill:#58595B;}
	.st17{font-family:'MetaOT-CondNorm';}
	.st18{fill:none;stroke:#005BAA;stroke-width:0.6;stroke-miterlimit:10;}
	.st19{font-family:'MetaOT-CondMedi';}
	.st20{fill:#005BAA;}
	.st21{font-size:6px;}
	.st22{font-family:'MetaOT-CondMediIta';}
	.st23{font-family:'NexusTypewriter-Italic';}
	.st24{fill:none;stroke:#005BAA;stroke-width:0.4995;stroke-miterlimit:10;}
	.st25{letter-spacing:-0.9;}
	.st26{fill:none;stroke:#58595B;stroke-width:0.5;stroke-miterlimit:10;}
	.st27{font-family:'MyriadPro-Regular';}
	.st28{letter-spacing:2;}
	.st29{letter-spacing:1;}
	.st30{fill:none;stroke:#58595B;stroke-width:0.6;}
	.st31{font-family:'BKABaskerville';}
	.st32{fill:none;stroke:#005BAA;stroke-width:0.6;}
	.st33{fill:none;stroke:#60489D;stroke-width:0.6;}
</style>
<polyline class="st0" points="85,56.7 85,629.3 510.2,629.3 510.2,56.7 85,56.7 "/>
<text transform="matrix(1 0 0 1 527.0857 785.624)" class="st1 st2">400</text>
<path class="st3" d="M104.9,295.8c0,0-11.6,3.1-8.5,14.7l1.5,5.6c0,0,3.1,11.6,14.7,8.5l39-10.4c0,0,11.6-3.1,8.5-14.7l-1.5-5.6
	c0,0-3.1-11.6-14.7-8.5L104.9,295.8"/>
<path class="st3" d="M397,193.2c0,0-1,0-1,1v2.1c0,0,0,1,1,1h30.2c0,0,1,0,1-1v-2.1c0,0,0-1-1-1H397"/>
<line class="st4" x1="397.3" y1="195.2" x2="426.2" y2="195.2"/>
<path class="st3" d="M287.9,140.4c0,0-5.7,4.1-1.6,9.8l1.9,2.6c0,0,4.1,5.7,9.8,1.6l39.8-28.4c0,0,5.7-4.1,1.6-9.8l-1.9-2.6
	c0,0-4.1-5.7-9.8-1.6L287.9,140.4"/>
<path class="st3" d="M122.8,518.6c0,0-12,0-12,12v66.6c0,0,0,12,12,12h34.8c0,0,12,0,12-12v-66.6c0,0,0-12-12-12H122.8"/>
<text transform="matrix(1 0 0 1 58.5683 70.5062)" class="st5 st6">K</text>
<text transform="matrix(1 0 0 1 66.3383 69.5062)" class="st1 st7"> 262</text>
<text transform="matrix(1 0 0 1 515.905 68.2025)"><tspan x="0" y="0" class="st8 st7">T</tspan><tspan x="4.3" y="0" class="st8 st7">s 180</tspan><tspan x="26.1" y="0" class="st8 st7">7</tspan><tspan x="31.1" y="0" class="st8 st7">4</tspan></text>
<text transform="matrix(1 0 0 1 542.9285 65.5384)" class="st8 st9">r</text>
<text transform="matrix(1 0 0 1 521.2332 129.053)" class="st1 st7">5</text>
<text transform="matrix(1 0 0 1 516.8738 209.053)" class="st1 st7">10</text>
<text transform="matrix(1 0 0 1 518.113 289.053)" class="st1 st7">15</text>
<text transform="matrix(1 0 0 1 516.3767 369.0529)" class="st1 st7">20</text>
<text transform="matrix(1 0 0 1 517.6169 416.9533)" class="st1 st7">25</text>
<text transform="matrix(1 0 0 1 516.6492 474.4533)" class="st1 st7">30</text>
<text transform="matrix(1 0 0 1 517.8894 524.8536)" class="st1 st7">35</text>
<text transform="matrix(1 0 0 1 376.5038 658.3985)" class="st8 st7">33</text>
<text transform="matrix(1 0 0 1 383.1913 658.3985)" class="st1 st7"> </text>
<text transform="matrix(1 0 0 1 387.8416 658.3985)" class="st10 st7">ars</text>
<text transform="matrix(1 0 0 1 402.2411 658.3985)" class="st1 st7"> </text>
<text transform="matrix(1 0 0 1 404.241 659.3985)" class="st11 st7"></text>
<text transform="matrix(1 0 0 1 411.3699 658.3985)" class="st1 st7"> </text>
<text transform="matrix(1 0 0 1 413.3709 659.3985)" class="st5 st12">K</text>
<text transform="matrix(1 0 0 1 420.3641 658.3985)"><tspan x="0" y="0" class="st1 st7"> 262,25: ar</tspan><tspan x="43.1" y="0" class="st1 st7">t</tspan><tspan x="46" y="0" class="st1 st7"> </tspan></text>
<text transform="matrix(1 0 0 1 170.079 94.4852)" class="st10 st13">                               -  44 -</text>
<line class="st14" x1="258.3" y1="227.4" x2="283.5" y2="227.4"/>
<line class="st14" x1="438.9" y1="403.4" x2="459.9" y2="403.4"/>
<text transform="matrix(1 0 0 1 170.079 112.9105)" class="st10 st13">fakte hervorbrachte, ihrem Gegenpol, der Natur, entzog: aber als selbst</text>
<text transform="matrix(1 0 0 1 170.079 128.9104)" class="st10 st13">gemachte ist diese Rettung auch ohnmächtig und uneigentlich.  Das</text>
<text transform="matrix(1 0 0 1 170.079 144.9104)" class="st10 st13">nimmt das Kunstwerk auf sich als Schein.  Er ist nicht dessen charac-</text>
<text transform="matrix(1 0 0 1 170.079 160.9104)" class="st10 st13">teristica formalis sondern die Spur von Beschädigung an der Stelle, wo</text>
<text transform="matrix(1 0 0 1 170.079 176.9104)" class="st10 st13">es anstatt eines Unbeschädigten aufbewahrt wird.</text>
<line class="st14" x1="170.1" y1="174.6" x2="371.7" y2="174.6"/>
<text transform="matrix(1 0 0 1 371.6756 176.9104)" class="st10 st13">  Was mit dem Material </text>
<text transform="matrix(1 0 0 1 170.079 192.9104)" class="st10 st13">geschieht, ist nicht einfach subjektive Manipulation, sondern determi-</text>
<text transform="matrix(1 0 0 1 170.079 208.9104)" class="st10 st13">niert von der noch nicht seienden Sache; das ist der Schauplatz von </text>
<text transform="matrix(1 0 0 1 170.079 224.9104)" class="st10 st13">Utopie in den Werken selbst.  Ist alles Material auch subjektiv – durch </text>
<text transform="matrix(1 0 0 1 170.079 240.9104)" class="st10 st13">die darin aufgespeicherte Subjektivität – vermittelt, so trägt es durch </text>
<text transform="matrix(1 0 0 1 170.079 256.9104)" class="st10 st13">die ihm immanenten Desiderate ebensoviel zur Objektivität bei.  Die von</text>
<text transform="matrix(1 0 0 1 170.079 272.9104)" class="st10 st13">Valery urgierte Notwendigkeit, daß sich der Künstler im Stande ästheti-</text>
<text transform="matrix(1 0 0 1 170.079 288.9104)" class="st10 st13">scher Kontingenz, durch strenge Form einschränke, hat ihr Richtiges</text>
<text transform="matrix(1 0 0 1 170.079 304.9104)" class="st10 st13">und ihr Äußerliches.</text>
<line class="st15" x1="170.1" y1="302.6" x2="254.1" y2="302.6"/>
<text transform="matrix(1.1 0 0 1 170.079 320.9104)"><tspan x="0" y="0" class="st16 st17 st13">    hie</tspan><tspan x="19.1" y="0" class="st16 st17 st13">r</tspan><tspan x="21.9" y="0" class="st16 st17 st13"> b</tspan><tspan x="28.5" y="0" class="st16 st17 st13">e</tspan><tspan x="32.4" y="0" class="st16 st17 st13">ginn</tspan><tspan x="47.5" y="0" class="st16 st17 st13">t</tspan><tspan x="50" y="0" class="st16 st17 st13"> de</tspan><tspan x="60.6" y="0" class="st16 st17 st13">r</tspan><tspan x="63.4" y="0" class="st16 st17 st13"> an „</tspan><tspan x="78.8" y="0" class="st16 st17 st13">S</tspan><tspan x="82.5" y="0" class="st16 st17 st13">ubj</tspan><tspan x="93.3" y="0" class="st16 st17 st13">e</tspan><tspan x="97.2" y="0" class="st16 st17 st13">k</tspan><tspan x="101.2" y="0" class="st16 st17 st13">t“ an</tspan><tspan x="117.1" y="0" class="st16 st17 st13">s</tspan><tspan x="120.6" y="0" class="st16 st17 st13">c</tspan><tspan x="124" y="0" class="st16 st17 st13">h</tspan><tspan x="128.3" y="0" class="st16 st17 st13">ließende</tspan><tspan x="157" y="0" class="st16 st17 st13"> </tspan><tspan x="159" y="0" class="st16 st17 st13">T</tspan><tspan x="163.1" y="0" class="st16 st17 st13">e</tspan><tspan x="167" y="0" class="st16 st17 st13">i</tspan><tspan x="169" y="0" class="st16 st17 st13">l</tspan><tspan x="171" y="0" class="st16 st17 st13"> </tspan><tspan x="173.2" y="0" class="st16 st17 st13">ü</tspan><tspan x="177.5" y="0" class="st16 st17 st13">be</tspan><tspan x="185.8" y="0" class="st16 st17 st13">r</tspan><tspan x="188.6" y="0" class="st16 st17 st13"> </tspan><tspan x="190.8" y="0" class="st16 st17 st13">K</tspan><tspan x="195.3" y="0" class="st16 st17 st13">u</tspan><tspan x="199.6" y="0" class="st16 st17 st13">n</tspan><tspan x="204" y="0" class="st16 st17 st13">stw</tspan><tspan x="215.5" y="0" class="st16 st17 st13">er</tspan><tspan x="222.2" y="0" class="st16 st17 st13">k</tspan><tspan x="226.2" y="0" class="st16 st17 st13"> a</tspan><tspan x="232.3" y="0" class="st16 st17 st13">ls</tspan><tspan x="237.8" y="0" class="st16 st17 st13"> </tspan><tspan x="239.9" y="0" class="st16 st17 st13">A</tspan><tspan x="244.7" y="0" class="st16 st17 st13">b</tspan><tspan x="249.2" y="0" class="st16 st17 st13">s</tspan><tspan x="252.7" y="0" class="st16 st17 st13">a</tspan><tspan x="256.6" y="0" class="st16 st17 st13">t</tspan><tspan x="259.1" y="0" class="st16 st17 st13">z</tspan><tspan x="263.1" y="0" class="st16 st17 st13"> </tspan></text>
<text transform="matrix(1 0 0 1 170.079 336.9104)" class="st10 st13">(Das folgende ist der Hauptteil über den Prozeßcharakter des Kuns</text>
<line class="st14" x1="174.3" y1="334.6" x2="443.1" y2="334.6"/>
<text transform="matrix(1 0 0 1 443.075 336.9104)" class="st10 st13">t-</text>
<text transform="matrix(1 0 0 1 170.079 352.9104)" class="st10 st13">werks.</text>
<line class="st14" x1="170.1" y1="350.6" x2="195.3" y2="350.6"/>
<text transform="matrix(1 0 0 1 195.2778 352.9104)" class="st10 st13">  Kontrollieren, ob alles darauf Bezogene hier hineingenommen </text>
<text transform="matrix(1 0 0 1 170.079 368.9103)" class="st10 st13">werden muß, oder ob die Überschneidungen unvermeidlich sind).  Man</text>
<line class="st18" x1="434.7" y1="366.6" x2="447.3" y2="366.6"/>
<text transform="matrix(1 0 0 1 447.2752 368.9103)" class="st10 st13"> </text>
<text transform="matrix(1.1 0 0 1 170.079 376.9103)" class="st19 st13">                  </text>
<text transform="matrix(1.1 0 0 1 198.2128 378.4103)"><tspan x="0" y="0" class="st20 st19 st13">D</tspan><tspan x="5.2" y="0" class="st20 st19 st13">aß</tspan></text>
<text transform="matrix(1.1 0 0 1 209.7631 376.9103)" class="st19 st13">                                                                                                   </text>
<text transform="matrix(1.1 0 0 1 364.4998 378.4103)"><tspan x="0" y="0" class="st20 st19 st13">n</tspan><tspan x="4.3" y="0" class="st20 st19 st13">u</tspan><tspan x="8.7" y="0" class="st20 st19 st13">r</tspan></text>
<text transform="matrix(1.1 0 0 1 374.3016 376.9103)" class="st19 st13">                               </text>
<text transform="matrix(1.1 0 0 1 422.7547 378.4103)" class="st20 st19 st13">sei,</text>
<text transform="matrix(1 0 0 1 170.079 384.9103)" class="st10 st13">pfle</text>
<line class="st18" x1="170.1" y1="382.6" x2="186.9" y2="382.6"/>
<text transform="matrix(1 0 0 1 186.8779 384.9103)" class="st10 st13">gt die adäquate Erfahrung von Kunstwerken als lebendig</text>
<text transform="matrix(1.1 0 0 1 413.6746 384.9103)" class="st20 st19 st13">e</text>
<text transform="matrix(1 0 0 1 417.0936 384.9103)" class="st10 st13"> zu chara</text>
<line class="st18" x1="421.3" y1="382.6" x2="454.9" y2="382.6"/>
<text transform="matrix(1 0 0 1 454.8924 384.9103)" class="st10 st13">k-</text>
<text transform="matrix(1 0 0 1 170.079 392.9103)" class="st10 st13">    </text>
<text transform="matrix(1.1 0 0 1 186.8779 394.4103)" class="st20 st19 st13">   </text>
<text transform="matrix(1.1 0 0 1 191.5668 394.4103)" class="st20 st19 st21">   </text>
<text transform="matrix(1 0 0 1 195.5868 389.9103)" class="st20 st10 st7">^</text>
<text transform="matrix(1 0 0 1 170.079 400.9103)" class="st10 st13">terisieren.  Da</text>
<line class="st18" x1="170.1" y1="398.6" x2="233.1" y2="398.6"/>
<text transform="matrix(1 0 0 1 233.078 400.9103)" class="st10 st13">s sagt abe</text>
<line class="st18" x1="262.5" y1="398.6" x2="275.1" y2="398.6"/>
<text transform="matrix(1 0 0 1 275.077 400.9103)" class="st10 st13">r mehr und ein Spezifischer</text>
<line class="st18" x1="304.5" y1="398.6" x2="388.5" y2="398.6"/>
<text transform="matrix(1 0 0 1 388.4745 400.9103)" class="st10 st13">es als bloß</text>
<line class="st18" x1="417.9" y1="398.6" x2="434.7" y2="398.6"/>
<text transform="matrix(1 0 0 1 434.6746 400.9103)" class="st10 st13"> etwas</text>
<text transform="matrix(1.1 0 0 1 170.079 408.9103)" class="st19 st13">                                                         </text>
<text transform="matrix(1.1 0 0 1 259.1698 410.4103)"><tspan x="0" y="0" class="st20 st19 st13">                                                                                                p</tspan><tspan x="217" y="0" class="st20 st19 st13">s</tspan><tspan x="220.6" y="0" class="st20 st19 st13">y</tspan><tspan x="224.2" y="0" class="st20 st19 st13">c</tspan><tspan x="227.7" y="0" class="st20 st19 st13">h</tspan><tspan x="232" y="0" class="st20 st19 st13">o</tspan><tspan x="236.3" y="0" class="st20 st19 st13">log</tspan><tspan x="247" y="0" class="st20 st19 st13">is</tspan><tspan x="252.4" y="0" class="st20 st19 st13">c</tspan><tspan x="255.9" y="0" class="st20 st19 st13">he</tspan></text>
<text transform="matrix(1 0 0 1 170.079 416.9103)" class="st10 st13">über die Beziehung von Betrachtendem und Betrachtetem, über die</text>
<line class="st18" x1="422.1" y1="414.6" x2="434.7" y2="414.6"/>
<text transform="matrix(1 0 0 1 434.6746 416.9103)" class="st10 st13"> [k]</text>
<text transform="matrix(1.1 0 0 1 451.4734 416.9103)" class="st20 st22 st13">K</text>
<text transform="matrix(1 0 0 1 455.2401 416.9103)" class="st10 st13">at[-]</text>
<text transform="matrix(1 0 0 1 476.239 416.9103)" class="st23 st13">h</text>
<text transform="matrix(1 0 0 1 480.4392 416.9103)" class="st10 st13">e-</text>
<text transform="matrix(1 0 0 1 170.079 424.9103)" class="st10 st13">                                                           </text>
<text transform="matrix(1 0 0 1 416.825 421.9103)" class="st20 st10 st7">^</text>
<text transform="matrix(1 0 0 1 170.079 432.9103)" class="st10 st13">xis als Bedingung ästhetischer Wahrnehmung.  Lebendig ist ästhetische </text>
<text transform="matrix(1 0 0 1 170.079 440.9103)" class="st10 st13">         </text>
<text transform="matrix(1.1 0 0 1 207.8778 442.4103)"><tspan x="0" y="0" class="st20 st19 st13">v</tspan><tspan x="3.6" y="0" class="st20 st19 st13">om</tspan><tspan x="14.4" y="0" class="st20 st19 st13"> </tspan><tspan x="16.5" y="0" class="st20 st19 st13">Obj</tspan><tspan x="28.4" y="0" class="st20 st19 st13">e</tspan><tspan x="32.3" y="0" class="st20 st19 st13">k</tspan><tspan x="36.4" y="0" class="st20 st19 st13">t</tspan><tspan x="38.9" y="0" class="st20 st19 st13"> he</tspan><tspan x="49.4" y="0" class="st20 st19 st13">r</tspan><tspan x="52" y="0" class="st20 st19 st13">,                                                                                                     </tspan><tspan x="277.9" y="0" class="st20 st19 st13">i</tspan><tspan x="279.9" y="0" class="st20 st19 st13">h</tspan><tspan x="284.2" y="0" class="st20 st19 st13">r</tspan><tspan x="287" y="0" class="st20 st19 st13">em</tspan></text>
<text transform="matrix(1 0 0 1 170.079 448.9103)" class="st10 st13">Erfahrung in dem Augenblick, in dem die Kunstwerke unter dem</text>
<line class="st18" x1="409.5" y1="446.6" x2="422.1" y2="446.6"/>
<text transform="matrix(1 0 0 1 422.075 448.9103)" class="st10 st13"> Blick sol-</text>
<line class="st18" x1="451.5" y1="446.6" x2="468.3" y2="446.6"/>
<text transform="matrix(1 0 0 1 170.079 456.9103)" class="st10 st13">      </text>
<text transform="matrix(1.1 0 0 1 195.2778 458.4103)" class="st20 st19 st13">   </text>
<text transform="matrix(1.1 0 0 1 200.7367 458.4103)"><tspan x="0" y="0" class="st20 st19 st7"> </tspan><tspan x="3.3" y="0" class="st20 st19 st7"> </tspan></text>
<text transform="matrix(1.1 0 0 1 206.0697 458.4103)" class="st20 st19 st13"> </text>
<text transform="matrix(1 0 0 1 208.4027 453.9103)" class="st20 st10 st7">^</text>
<text transform="matrix(1 0 0 1 170.079 464.9103)" class="st10 st13">cher Erfahrung</text>
<line class="st18" x1="170.1" y1="462.6" x2="228.9" y2="462.6"/>
<text transform="matrix(1 0 0 1 228.8778 464.9103)" class="st10 st13"> selbst lebendig werden.  So hat George es</text>
<line class="st14" x1="396.9" y1="462.6" x2="405.3" y2="462.6"/>
<text transform="matrix(1 0 0 1 405.2752 464.9103)" class="st10 st13"> in dem Gedicht </text>
<text transform="matrix(1 0 0 1 170.079 472.9103)" class="st10 st13">              </text>
<text transform="matrix(1.1 0 0 1 228.8778 474.4103)" class="st20 st19 st13">    die                  </text>
<text transform="matrix(1.1 0 0 1 272.226 474.4103)"><tspan x="0" y="0" class="st20 st19 st13">G</tspan><tspan x="5" y="0" class="st20 st19 st13">e</tspan><tspan x="9" y="0" class="st20 st19 st13">di</tspan><tspan x="15.4" y="0" class="st20 st19 st13">c</tspan><tspan x="18.9" y="0" class="st20 st19 st13">ht</tspan></text>
<line class="st18" x1="272.2" y1="472.1" x2="294.4" y2="472.1"/>
<text transform="matrix(1.1 0 0 1 294.4017 474.4103)" class="st20 st19 st13">           </text>
<text transform="matrix(1.1 0 0 1 311.5946 474.4103)"><tspan x="0" y="0" class="st20 st19 st13">B</tspan><tspan x="4" y="0" class="st20 st19 st13">a</tspan></text>
<line class="st24" x1="311.6" y1="471.6" x2="319.1" y2="471.6"/>
<line class="st24" x1="311.6" y1="472.6" x2="319.1" y2="472.6"/>
<text transform="matrix(1.1 0 0 1 319.0946 474.4103)"><tspan x="0" y="0" class="st20 st19 st13">               </tspan><tspan x="33.2" y="0" class="st20 st19 st13">B</tspan><tspan x="37.2" y="0" class="st20 st19 st13">and</tspan></text>
<text transform="matrix(1 0 0 1 170.079 480.9103)" class="st10 st13">&apos;Der Teppich&apos;, das</text>
<line class="st18" x1="233.1" y1="478.6" x2="245.7" y2="478.6"/>
<text transform="matrix(1 0 0 1 245.6781 480.9103)" class="st10 st13"> einem [B]</text>
<line class="st18" x1="275.1" y1="478.6" x2="287.7" y2="478.6"/>
<text transform="matrix(1.1 0 0 1 287.6766 480.9103)" class="st20 st22 st13">b</text>
<line class="st18" x1="287.7" y1="478.6" x2="291.4" y2="478.6"/>
<text transform="matrix(1 0 0 1 291.4501 480.9103)" class="st10 st13">an</text>
<line class="st18" x1="291.4" y1="478.6" x2="299.8" y2="478.6"/>
<text transform="matrix(1 0 0 1 299.8495 480.9103)" class="st10 st13">d von ihm</text>
<line class="st18" x1="308.2" y1="478.6" x2="337.6" y2="478.6"/>
<text transform="matrix(1 0 0 1 337.6493 480.9103)" class="st10 st13"> den Titel leiht</text>
<text transform="matrix(1.1 0 0 1 404.8475 480.9103)" class="st20 st19 st13">,</text>
<text transform="matrix(1 0 0 1 406.8416 480.9103)" class="st10 st13"> und etwas wi</text>
<line class="st18" x1="411" y1="478.6" x2="461.4" y2="478.6"/>
<text transform="matrix(1 0 0 1 461.4422 480.9103)" class="st10 st13">e </text>
<text transform="matrix(1.1 0 0 1 170.079 490.4103)"><tspan x="0" y="0" class="st20 st19 st13">  eine</tspan><tspan x="18.6" y="0" class="st20 st19 st13">r</tspan><tspan x="21.4" y="0" class="st20 st19 st13">                                                                                        e</tspan><tspan x="220.2" y="0" class="st20 st19 st13">s</tspan><tspan x="223.7" y="0" class="st20 st19 st13">    </tspan></text>
<text transform="matrix(1 0 0 1 338.2909 485.9103)" class="st20 st10 st7">^</text>
<text transform="matrix(1.1 0 0 1 343.0907 490.4103)"><tspan x="0" y="0" class="st20 st19 st13 st25"> </tspan><tspan x="1.1" y="0" class="st20 st19 st13">       </tspan></text>
<text transform="matrix(1 0 0 1 170.079 496.9103)" class="st10 st13">seine</text>
<line class="st18" x1="170.1" y1="494.6" x2="191.1" y2="494.6"/>
<text transform="matrix(1 0 0 1 191.078 496.9103)" class="st10 st13"> ars poetique ist</text>
<line class="st18" x1="249.9" y1="494.6" x2="262.5" y2="494.6"/>
<text transform="matrix(1 0 0 1 262.4769 496.9103)" class="st10 st13">, symbolistisch gelehrt:</text>
<text transform="matrix(1.1 0 0 1 363.2762 496.9103)" class="st20 st19 st13">.</text>
<text transform="matrix(1 0 0 1 365.201 496.9103)" class="st10 st13">&quot;</text>
<text transform="matrix(1 0 0 1 170.079 504.9103)" class="st10 st13">                            </text>
<text transform="matrix(1.1 0 0 1 287.6766 506.4103)" class="st20 st19 st13">                     </text>
<text transform="matrix(1.1 0 0 1 320.4999 506.4103)" class="st20 st19 st21">  </text>
<text transform="matrix(1.1 0 0 1 323.1786 506.4103)" class="st20 st19 st13"> </text>
<text transform="matrix(1 0 0 1 324.7421 501.9103)" class="st20 st10 st7">^</text>
<text transform="matrix(1 0 0 1 170.079 512.9103)" class="st10 st13">Und kahle linien ziehn in reich-gestickten</text>
<text transform="matrix(1 0 0 1 170.079 524.9103)" class="st10 st13">Und teil um teil ist wirr und gegenwendig</text>
<text transform="matrix(1 0 0 1 170.079 536.9103)" class="st10 st13">Und keiner ahnt das rätsel der verstrickten..</text>
<text transform="matrix(1 0 0 1 170.079 548.9103)" class="st10 st13">Da eines abdneds wird das werk lebendig.</text>
<text transform="matrix(1 0 0 1 85.039 734.9327)"><tspan x="0" y="0" class="st8 st7">2</tspan><tspan x="5.1" y="0" class="st8 st7">1</tspan><tspan x="9.9" y="0" class="st8 st7">-</tspan><tspan x="14.4" y="0" class="st8 st7">33</tspan></text>
<text transform="matrix(1 0 0 1 101.0869 734.9327)" class="st1 st7"> </text>
<text transform="matrix(1 0 0 1 103.0869 735.9327)" class="st11 st7"></text>
<text transform="matrix(1 0 0 1 110.2158 734.9327)" class="st1 st7"> </text>
<text transform="matrix(1 0 0 1 112.2158 735.9327)" class="st5 st12">K</text>
<text transform="matrix(1 0 0 1 119.2089 734.9327)"><tspan x="0" y="0" class="st1 st7"> 262,19</tspan><tspan x="30.4" y="0" class="st1 st7">-</tspan><tspan x="34.8" y="0" class="st1 st7">3</tspan><tspan x="39.8" y="0" class="st1 st7">4</tspan></text>
<line class="st26" x1="247.9" y1="74.2" x2="296.8" y2="74.2"/>
<text transform="matrix(1.1 0 0 1 219.9687 72.4593)"><tspan x="0" y="0" class="st16 st17 st13">K</tspan><tspan x="4.5" y="0" class="st16 st17 st13">ri</tspan><tspan x="9.4" y="0" class="st16 st17 st13">ti</tspan><tspan x="14" y="0" class="st16 st17 st13">k</tspan><tspan x="18" y="0" class="st16 st17 st13"> de</tspan><tspan x="28.5" y="0" class="st16 st17 st13">s</tspan><tspan x="32" y="0" class="st16 st17 st13"> </tspan><tspan x="34.1" y="0" class="st16 st17 st13">S</tspan><tspan x="37.9" y="0" class="st16 st17 st13">c</tspan><tspan x="41.3" y="0" class="st16 st17 st13">hein</tspan><tspan x="55.9" y="0" class="st16 st17 st13">c</tspan><tspan x="59.4" y="0" class="st16 st17 st13">h</tspan><tspan x="63.6" y="0" class="st16 st17 st13">a</tspan><tspan x="67.5" y="0" class="st16 st17 st13">r</tspan><tspan x="70.4" y="0" class="st16 st17 st13">a</tspan><tspan x="74.2" y="0" class="st16 st17 st13">k</tspan><tspan x="78.3" y="0" class="st16 st17 st13">t</tspan><tspan x="80.8" y="0" class="st16 st17 st13">e</tspan><tspan x="84.7" y="0" class="st16 st17 st13">r</tspan><tspan x="87.5" y="0" class="st16 st17 st13">s</tspan></text>
<text transform="matrix(1.1 0 0 1 219.9687 80.4593)"><tspan x="0" y="0" class="st16 st17 st13">Im</tspan><tspan x="8.6" y="0" class="st16 st17 st13">m</tspan><tspan x="15" y="0" class="st16 st17 st13">anen</tspan><tspan x="31.5" y="0" class="st16 st17 st13">t</tspan><tspan x="34" y="0" class="st16 st17 st13">e</tspan><tspan x="37.9" y="0" class="st16 st17 st13">r</tspan><tspan x="40.7" y="0" class="st16 st17 st13"> </tspan><tspan x="42.9" y="0" class="st16 st17 st13">P</tspan><tspan x="46.7" y="0" class="st16 st17 st13">ro</tspan><tspan x="53.7" y="0" class="st16 st17 st13">z</tspan><tspan x="57.6" y="0" class="st16 st17 st13">eß</tspan><tspan x="65.7" y="0" class="st16 st17 st13">c</tspan><tspan x="69.1" y="0" class="st16 st17 st13">h</tspan><tspan x="73.4" y="0" class="st16 st17 st13">a</tspan><tspan x="77.3" y="0" class="st16 st17 st13">r</tspan><tspan x="80.1" y="0" class="st16 st17 st13">a</tspan><tspan x="84" y="0" class="st16 st17 st13">k</tspan><tspan x="88" y="0" class="st16 st17 st13">t</tspan><tspan x="90.6" y="0" class="st16 st17 st13">e</tspan><tspan x="94.5" y="0" class="st16 st17 st13">r</tspan><tspan x="97.3" y="0" class="st16 st17 st13"> de</tspan><tspan x="107.8" y="0" class="st16 st17 st13">s</tspan><tspan x="111.4" y="0" class="st16 st17 st13"> </tspan><tspan x="113.6" y="0" class="st16 st17 st13">K</tspan><tspan x="118" y="0" class="st16 st17 st13">u</tspan><tspan x="122.4" y="0" class="st16 st17 st13">n</tspan><tspan x="126.7" y="0" class="st16 st17 st13">stw</tspan><tspan x="138.2" y="0" class="st16 st17 st13">er</tspan><tspan x="145" y="0" class="st16 st17 st13">k</tspan><tspan x="149" y="0" class="st16 st17 st13">s</tspan></text>
<text transform="matrix(1 0 0 1 358.1571 95.2943)"><tspan x="0" y="0" class="st27 st12"></tspan><tspan x="4.7" y="0" class="st27 st12 st28"></tspan><tspan x="11.2" y="0" class="st27 st12 st29"></tspan><tspan x="16.9" y="0" class="st27 st12 st29"></tspan><tspan x="28.2" y="0" class="st27 st12 st29"></tspan><tspan x="33.9" y="0" class="st27 st12"></tspan></text>
<text transform="matrix(1 0 0 1 433.701 90.2611)"><tspan x="0" y="0" class="st27 st6 st29"></tspan><tspan x="12" y="0" class="st27 st6"></tspan></text>
<line class="st30" x1="183.6" y1="268.7" x2="186" y2="267"/>
<line class="st26" x1="114" y1="352" x2="146.8" y2="343.2"/>
<line class="st26" x1="124.7" y1="374" x2="168.8" y2="362.2"/>
<text transform="matrix(1.0625 -0.2847 0.2588 0.9659 103.9799 352.8903)" class="st16 st17 st13">NB</text>
<text transform="matrix(1.0625 -0.2847 0.2588 0.9659 111.998 350.7425)" class="st16 st19 st13"> </text>
<text transform="matrix(1.0625 -0.2847 0.2588 0.9659 113.5077 350.3377)"><tspan x="0" y="0" class="st16 st17 st13">seh</tspan><tspan x="11.8" y="0" class="st16 st17 st13">r</tspan><tspan x="14.6" y="0" class="st16 st17 st13"> </tspan><tspan x="16.8" y="0" class="st16 st17 st13">w</tspan><tspan x="22.2" y="0" class="st16 st17 st13">i</tspan><tspan x="24.2" y="0" class="st16 st17 st13">c</tspan><tspan x="27.6" y="0" class="st16 st17 st13">h</tspan><tspan x="32" y="0" class="st16 st17 st13">t</tspan><tspan x="34.6" y="0" class="st16 st17 st13">ig</tspan></text>
<text transform="matrix(1.0625 -0.2847 0.2588 0.9659 106.0511 360.619)"><tspan x="0" y="0" class="st16 st17 st13">K</tspan><tspan x="4.4" y="0" class="st16 st17 st13">on</tspan><tspan x="13.1" y="0" class="st16 st17 st13">t</tspan><tspan x="15.7" y="0" class="st16 st17 st13">r</tspan><tspan x="18.4" y="0" class="st16 st17 st13">o</tspan><tspan x="22.7" y="0" class="st16 st17 st13">l</tspan><tspan x="24.7" y="0" class="st16 st17 st13">lie</tspan><tspan x="32.6" y="0" class="st16 st17 st13">r</tspan><tspan x="35.4" y="0" class="st16 st17 st13">en </tspan><tspan x="45.9" y="0" class="st16 st17 st13">o</tspan><tspan x="50.1" y="0" class="st16 st17 st13">b</tspan></text>
<text transform="matrix(1.0625 -0.2847 0.2588 0.9659 108.1216 368.3459)"><tspan x="0" y="0" class="st16 st17 st13">ni</tspan><tspan x="6.4" y="0" class="st16 st17 st13">c</tspan><tspan x="9.8" y="0" class="st16 st17 st13">h</tspan><tspan x="14.2" y="0" class="st16 st17 st13">t</tspan><tspan x="16.7" y="0" class="st16 st17 st13"> </tspan><tspan x="18.9" y="0" class="st16 st17 st13">s</tspan><tspan x="22.4" y="0" class="st16 st17 st13">c</tspan><tspan x="25.9" y="0" class="st16 st17 st13">hon</tspan><tspan x="38.9" y="0" class="st16 st17 st13"> f</tspan><tspan x="43.6" y="0" class="st16 st17 st13">r</tspan><tspan x="46.4" y="0" class="st16 st17 st13">ü</tspan><tspan x="50.8" y="0" class="st16 st17 st13">her</tspan></text>
<text transform="matrix(1.0625 -0.2847 0.2588 0.9659 110.1918 376.0729)"><tspan x="0" y="0" class="st16 st17 st13">ü</tspan><tspan x="4.3" y="0" class="st16 st17 st13">be</tspan><tspan x="12.6" y="0" class="st16 st17 st13">r</tspan><tspan x="15.4" y="0" class="st16 st17 st13"> </tspan></text>
<text transform="matrix(1.0625 -0.2847 0.2588 0.9659 124.2046 372.3194)"><tspan x="0" y="0" class="st16 st17 st13">P</tspan><tspan x="3.8" y="0" class="st16 st17 st13">ro</tspan><tspan x="10.8" y="0" class="st16 st17 st13">z</tspan><tspan x="14.6" y="0" class="st16 st17 st13">eß</tspan><tspan x="22.7" y="0" class="st16 st17 st13">c</tspan><tspan x="26.2" y="0" class="st16 st17 st13">h</tspan><tspan x="30.5" y="0" class="st16 st17 st13">a</tspan><tspan x="34.3" y="0" class="st16 st17 st13">r</tspan><tspan x="37.2" y="0" class="st16 st17 st13">a</tspan><tspan x="41" y="0" class="st16 st17 st13">k</tspan><tspan x="45.1" y="0" class="st16 st17 st13">t</tspan><tspan x="47.6" y="0" class="st16 st17 st13">er</tspan></text>
<text transform="matrix(1.0625 -0.2847 0.2588 0.9659 110.918 408.6584)" class="st16 st31 st12">          </text>
<text transform="matrix(1.0625 -0.2847 0.2588 0.9659 130.0435 403.5344)" class="st16 st31 st12">erst</text>
<text transform="matrix(1.0625 -0.2847 0.2588 0.9659 113.5063 418.3171)" class="st16 st31 st12">nach Abschrift</text>
<text transform="matrix(1.0625 -0.2847 0.2588 0.9659 101.7085 301.3079)" class="st16 st31 st12">kann erst</text>
<text transform="matrix(1.0625 -0.2847 0.2588 0.9659 104.2962 310.966)" class="st16 st31 st12">nach Phantasie</text>
<text transform="matrix(1.0625 -0.2847 0.2588 0.9659 106.8851 320.6252)" class="st16 st31 st12">kommen</text>
<text transform="matrix(1 0 0 1 99.2129 338.2654)" class="st10 st13">spatium</text>
<line class="st32" x1="248.5" y1="379" x2="247.3" y2="386.3"/>
<line class="st32" x1="360.9" y1="491" x2="360.7" y2="498"/>
<line class="st33" x1="221.6" y1="492.6" x2="223.9" y2="490.9"/>
<path class="st32" d="M233.5,389.8c10.4,0,18.9-1.8,18.9-6.3c0-5.7-4.3-6-18.9-6c-15.7,0-18.9-0.4-18.9,6
	C214.6,391.8,220.4,389.8,233.5,389.8z"/>
<path class="st32" d="M249,378.4l109.8-0.1c0,0,3,0,2.3,2.9l-1.6,6.4"/>
<path class="st32" d="M360.2,384.5l1.9-1.9c0,0,1.9-1.9,5.8-2.5l7.2-1.1c0,0,1-0.2,1.6-0.9l2.7-3.3"/>
<path class="st32" d="M173.9,484.3c0,0-6.2-0.3-5.9,6.3l0.7,5.3c0-0.2,0.8,5.2,6.9,5.2h66.7c0,0,7.9,0,7.9-6.5v-3.6
	c0-4.9,0-6.5-7.9-6.5L173.9,484.3z"/>
<line class="st32" x1="229.3" y1="484.5" x2="231" y2="472.6"/>
<polyline class="st32" points="228.8,473.2 231,472.4 232.8,473.9 "/>
<path class="st32" d="M271.5,470.9l-0.4,0.9c0,0-0.4,0.9-0.1,1.8l1.2,3.8c0,0,0.3,1-0.1,1.9l-1.3,2.9"/>
<path class="st32" d="M272.1,479.4l2-2.2c0,0,2-2.2,8-2.1l9.9,0.3"/>
<line class="st30" x1="123.2" y1="389.2" x2="123.2" y2="404.4"/>
<polyline class="st30" points="118.9,403.1 123.2,404.4 127,400.7 "/>
<line class="st32" x1="433.1" y1="439.4" x2="419.4" y2="450.8"/>
<text transform="matrix(1.1 0 0 1 158.5278 511.4044)" class="st16 st17 st13">[&quot;]</text>
<text transform="matrix(1.1 0 0 1 164.9877 511.4044)" class="st20 st19 st13">&quot;</text>
<path class="st30" d="M216.3,543.4l4.6,0.3l2.2,0.1c0,0,1,0.1,1.3,1l1.1,4.1l0.7,2c0,0,0.6,2,1.6-0.9l1.9-5.8"/>
<path class="st30" d="M176.4,310.3c0,0-6,0-6,6v4c0,0,0,6,6,6h278.8c0,0,6,0,6-6v-4c0,0,0-6-6-6H176.4z"/>
<path class="st33" d="M370.1,169.9l4.5,4.5c0,0,4.5,4.5,16.5,4.4l25-0.3c0,0,4,0,7.8-1.2l6.1-1.9"/>
<line class="st30" x1="228.8" y1="110.6" x2="174.6" y2="157.3"/>
<line class="st30" x1="287.3" y1="105.3" x2="218.4" y2="157.3"/>
<line class="st30" x1="350.9" y1="105.3" x2="332.5" y2="119.1"/>
<line class="st30" x1="315" y1="131.5" x2="292.7" y2="147.9"/>
<line class="st30" x1="412" y1="104" x2="336.1" y2="156.4"/>
<line class="st30" x1="458.7" y1="104" x2="391.4" y2="157.3"/>
<line class="st33" x1="196.2" y1="184.8" x2="204.4" y2="278.9"/>
<line class="st33" x1="205.8" y1="275.3" x2="208" y2="294.8"/>
<line class="st33" x1="273.8" y1="182.3" x2="283.4" y2="278.9"/>
<line class="st33" x1="282" y1="272.4" x2="289.4" y2="292.3"/>
<line class="st33" x1="333.7" y1="191.4" x2="350.3" y2="286.2"/>
<line class="st33" x1="402.8" y1="188.3" x2="418.1" y2="295"/>
<line class="st33" x1="448.2" y1="192.2" x2="451.5" y2="291.1"/>
<line class="st32" x1="192.1" y1="508" x2="196.1" y2="551.9"/>
<line class="st32" x1="225.9" y1="507.3" x2="231" y2="551.9"/>
<line class="st32" x1="262.5" y1="507.3" x2="271.6" y2="551.9"/>
<line class="st30" x1="100.6" y1="308.4" x2="100.6" y2="301.3"/>
<polyline class="st30" points="98.8,302.2 100.6,301.1 102.3,302.2 "/>
<polyline class="st30" points="254.4,81.6 255.5,75.4 300.1,75.3 "/>
<polyline class="st30" points="252.3,81.7 301.7,81.4 303.6,71.6 "/>
<text transform="matrix(1.1 0 0 1 74.3369 351.174)" class="st1 st7">&apos;5</text>
<text transform="matrix(1.1 0 0 1 69.541 428.174)" class="st1 st7">&apos;10</text>
<path class="st30" d="M113.1,324c19.6,0,58.7-13.7,58.7-20.3c0-24.4,2.4-33.7-23.2-33.7c-20.3,0-52.2,18.7-52.2,31.3
	C96.4,307.9,95.4,324,113.1,324z"/>
<line class="st32" x1="303.9" y1="507.3" x2="309" y2="549.6"/>
<line class="st30" x1="364.2" y1="491.8" x2="369.8" y2="493.4"/>
<path class="st3" d="M171.2,562.7c0,0-12,0-12,12v8.4c0,0,0,12,12,12h217.6c0,0,12,0,12-12v-8.4c0,0,0-12-12-12H171.2"/>
<path class="st3" d="M250.8,161.2c0,0-1,0-1,1v2.1c0,0,0,1,1,1h28.7c0,0,1,0,1-1v-2.1c0,0,0-1-1-1H250.8"/>
<line class="st4" x1="251.1" y1="163.2" x2="278.6" y2="163.2"/>
<path class="st3" d="M117.3,151.3c0,0-6.8,1.7-5.1,8.5l0.7,2.9c0,0,1.7,6.8,8.5,5.1l37.3-9.3c0,0,6.8-1.7,5.1-8.5l-0.7-2.9
	c0,0-1.7-6.8-8.5-5.1L117.3,151.3"/>
<path class="st3" d="M146.6,234.6c0,0-5.9,0.8-5.2,6.7l0.4,2.7c0,0,0.8,5.9,6.7,5.2l8.1-1.1c0,0,5.9-0.8,5.2-6.7l-0.4-2.7
	c0,0-0.8-5.9-6.7-5.2L146.6,234.6"/>
<path class="st3" d="M375.8,225.5c0,0-1,0-1,1v2.1c0,0,0,1,1,1h17.3c0,0,1,0,1-1v-2.1c0,0,0-1-1-1H375.8"/>
<line class="st4" x1="375.6" y1="227.6" x2="392.9" y2="227.6"/>
</svg>
